<svg width="23" height="23" viewBox="0 0 23 23" fill="none" xmlns="http://www.w3.org/2000/svg">
<path d="M14.375 11.5C14.375 12.2625 14.0721 12.9938 13.5329 13.5329C12.9938 14.0721 12.2625 14.375 11.5 14.375C10.7375 14.375 10.0062 14.0721 9.46707 13.5329C8.9279 12.9938 8.625 12.2625 8.625 11.5C8.625 10.7375 8.9279 10.0062 9.46707 9.46707C10.0062 8.9279 10.7375 8.625 11.5 8.625C12.2625 8.625 12.9938 8.9279 13.5329 9.46707C14.0721 10.0062 14.375 10.7375 14.375 11.5Z" stroke="#144DC1" stroke-opacity="0.79" stroke-width="2" stroke-linecap="round" stroke-linejoin="round"/>
<path d="M1.9165 11.5C3.44984 7.57371 7.03017 4.79167 11.4998 4.79167C15.9695 4.79167 19.5498 7.57371 21.0832 11.5C19.5498 15.4263 15.9695 18.2083 11.4998 18.2083C7.03017 18.2083 3.44984 15.4263 1.9165 11.5Z" stroke="#144DC1" stroke-opacity="0.79" stroke-width="2" stroke-linecap="round" stroke-linejoin="round"/>
</svg>
